<svg width="18" height="18" viewBox="0 0 18 18" fill="none" xmlns="http://www.w3.org/2000/svg">
<mask id="mask0_0_982" style="mask-type:alpha" maskUnits="userSpaceOnUse" x="0" y="0" width="18" height="18">
<rect width="18" height="18" fill="#D9D9D9"/>
</mask>
<g mask="url(#mask0_0_982)">
<path d="M6.75 2.25V0.75H11.25V2.25H6.75ZM8.25 10.5H9.75V6H8.25V10.5ZM9 16.5C8.075 16.5 7.20312 16.3219 6.38438 15.9656C5.56563 15.6094 4.85 15.125 4.2375 14.5125C3.625 13.9 3.14062 13.1844 2.78438 12.3656C2.42813 11.5469 2.25 10.675 2.25 9.75C2.25 8.825 2.42813 7.95312 2.78438 7.13437C3.14062 6.31562 3.625 5.6 4.2375 4.9875C4.85 4.375 5.56563 3.89062 6.38438 3.53438C7.20312 3.17813 8.075 3 9 3C9.775 3 10.5188 3.125 11.2313 3.375C11.9438 3.625 12.6125 3.9875 13.2375 4.4625L14.2875 3.4125L15.3375 4.4625L14.2875 5.5125C14.7625 6.1375 15.125 6.80625 15.375 7.51875C15.625 8.23125 15.75 8.975 15.75 9.75C15.75 10.675 15.5719 11.5469 15.2156 12.3656C14.8594 13.1844 14.375 13.9 13.7625 14.5125C13.15 15.125 12.4344 15.6094 11.6156 15.9656C10.7969 16.3219 9.925 16.5 9 16.5ZM9 15C10.45 15 11.6875 14.4875 12.7125 13.4625C13.7375 12.4375 14.25 11.2 14.25 9.75C14.25 8.3 13.7375 7.0625 12.7125 6.0375C11.6875 5.0125 10.45 4.5 9 4.5C7.55 4.5 6.3125 5.0125 5.2875 6.0375C4.2625 7.0625 3.75 8.3 3.75 9.75C3.75 11.2 4.2625 12.4375 5.2875 13.4625C6.3125 14.4875 7.55 15 9 15Z" fill="#6750A4"/>
</g>
</svg>
