<svg width="18" height="18" viewBox="0 0 18 18" fill="none" xmlns="http://www.w3.org/2000/svg">
<mask id="mask0_0_988" style="mask-type:alpha" maskUnits="userSpaceOnUse" x="0" y="0" width="18" height="18">
<rect width="18" height="18" fill="#D9D9D9"/>
</mask>
<g mask="url(#mask0_0_988)">
<path d="M0.75 15V12.9C0.75 12.475 0.859375 12.0844 1.07812 11.7281C1.29688 11.3719 1.5875 11.1 1.95 10.9125C2.725 10.525 3.5125 10.2344 4.3125 10.0406C5.1125 9.84687 5.925 9.75 6.75 9.75C7.575 9.75 8.3875 9.84687 9.1875 10.0406C9.9875 10.2344 10.775 10.525 11.55 10.9125C11.9125 11.1 12.2031 11.3719 12.4219 11.7281C12.6406 12.0844 12.75 12.475 12.75 12.9V15H0.75ZM14.25 15V12.75C14.25 12.2 14.0969 11.6719 13.7906 11.1656C13.4844 10.6594 13.05 10.225 12.4875 9.8625C13.125 9.9375 13.725 10.0656 14.2875 10.2469C14.85 10.4281 15.375 10.65 15.8625 10.9125C16.3125 11.1625 16.6562 11.4406 16.8937 11.7469C17.1313 12.0531 17.25 12.3875 17.25 12.75V15H14.25ZM6.75 9C5.925 9 5.21875 8.70625 4.63125 8.11875C4.04375 7.53125 3.75 6.825 3.75 6C3.75 5.175 4.04375 4.46875 4.63125 3.88125C5.21875 3.29375 5.925 3 6.75 3C7.575 3 8.28125 3.29375 8.86875 3.88125C9.45625 4.46875 9.75 5.175 9.75 6C9.75 6.825 9.45625 7.53125 8.86875 8.11875C8.28125 8.70625 7.575 9 6.75 9ZM14.25 6C14.25 6.825 13.9563 7.53125 13.3688 8.11875C12.7813 8.70625 12.075 9 11.25 9C11.1125 9 10.9375 8.98438 10.725 8.95312C10.5125 8.92188 10.3375 8.8875 10.2 8.85C10.5375 8.45 10.7969 8.00625 10.9781 7.51875C11.1594 7.03125 11.25 6.525 11.25 6C11.25 5.475 11.1594 4.96875 10.9781 4.48125C10.7969 3.99375 10.5375 3.55 10.2 3.15C10.375 3.0875 10.55 3.04688 10.725 3.02813C10.9 3.00938 11.075 3 11.25 3C12.075 3 12.7813 3.29375 13.3688 3.88125C13.9563 4.46875 14.25 5.175 14.25 6ZM2.25 13.5H11.25V12.9C11.25 12.7625 11.2156 12.6375 11.1469 12.525C11.0781 12.4125 10.9875 12.325 10.875 12.2625C10.2 11.925 9.51875 11.6719 8.83125 11.5031C8.14375 11.3344 7.45 11.25 6.75 11.25C6.05 11.25 5.35625 11.3344 4.66875 11.5031C3.98125 11.6719 3.3 11.925 2.625 12.2625C2.5125 12.325 2.42188 12.4125 2.35313 12.525C2.28438 12.6375 2.25 12.7625 2.25 12.9V13.5ZM6.75 7.5C7.1625 7.5 7.51563 7.35313 7.80938 7.05937C8.10313 6.76562 8.25 6.4125 8.25 6C8.25 5.5875 8.10313 5.23438 7.80938 4.94063C7.51563 4.64688 7.1625 4.5 6.75 4.5C6.3375 4.5 5.98438 4.64688 5.69063 4.94063C5.39687 5.23438 5.25 5.5875 5.25 6C5.25 6.4125 5.39687 6.76562 5.69063 7.05937C5.98438 7.35313 6.3375 7.5 6.75 7.5Z" fill="#6750A4"/>
</g>
</svg>
