<svg width="18" height="18" viewBox="0 0 18 18" fill="none" xmlns="http://www.w3.org/2000/svg">
<mask id="mask0_0_976" style="mask-type:alpha" maskUnits="userSpaceOnUse" x="0" y="0" width="18" height="18">
<rect width="18" height="18" fill="#D9D9D9"/>
</mask>
<g mask="url(#mask0_0_976)">
<path d="M3.75 16.5C3.3375 16.5 2.98438 16.3531 2.69063 16.0594C2.39688 15.7656 2.25 15.4125 2.25 15V4.5C2.25 4.0875 2.39688 3.73438 2.69063 3.44063C2.98438 3.14688 3.3375 3 3.75 3H4.5V1.5H6V3H12V1.5H13.5V3H14.25C14.6625 3 15.0156 3.14688 15.3094 3.44063C15.6031 3.73438 15.75 4.0875 15.75 4.5V15C15.75 15.4125 15.6031 15.7656 15.3094 16.0594C15.0156 16.3531 14.6625 16.5 14.25 16.5H3.75ZM3.75 15H14.25V7.5H3.75V15ZM3.75 6H14.25V4.5H3.75V6ZM9 10.5C8.7875 10.5 8.60938 10.4281 8.46563 10.2844C8.32188 10.1406 8.25 9.9625 8.25 9.75C8.25 9.5375 8.32188 9.35938 8.46563 9.21563C8.60938 9.07188 8.7875 9 9 9C9.2125 9 9.39063 9.07188 9.53438 9.21563C9.67813 9.35938 9.75 9.5375 9.75 9.75C9.75 9.9625 9.67813 10.1406 9.53438 10.2844C9.39063 10.4281 9.2125 10.5 9 10.5ZM6 10.5C5.7875 10.5 5.60938 10.4281 5.46562 10.2844C5.32187 10.1406 5.25 9.9625 5.25 9.75C5.25 9.5375 5.32187 9.35938 5.46562 9.21563C5.60938 9.07188 5.7875 9 6 9C6.2125 9 6.39062 9.07188 6.53438 9.21563C6.67812 9.35938 6.75 9.5375 6.75 9.75C6.75 9.9625 6.67812 10.1406 6.53438 10.2844C6.39062 10.4281 6.2125 10.5 6 10.5ZM12 10.5C11.7875 10.5 11.6094 10.4281 11.4656 10.2844C11.3219 10.1406 11.25 9.9625 11.25 9.75C11.25 9.5375 11.3219 9.35938 11.4656 9.21563C11.6094 9.07188 11.7875 9 12 9C12.2125 9 12.3906 9.07188 12.5344 9.21563C12.6781 9.35938 12.75 9.5375 12.75 9.75C12.75 9.9625 12.6781 10.1406 12.5344 10.2844C12.3906 10.4281 12.2125 10.5 12 10.5ZM9 13.5C8.7875 13.5 8.60938 13.4281 8.46563 13.2844C8.32188 13.1406 8.25 12.9625 8.25 12.75C8.25 12.5375 8.32188 12.3594 8.46563 12.2156C8.60938 12.0719 8.7875 12 9 12C9.2125 12 9.39063 12.0719 9.53438 12.2156C9.67813 12.3594 9.75 12.5375 9.75 12.75C9.75 12.9625 9.67813 13.1406 9.53438 13.2844C9.39063 13.4281 9.2125 13.5 9 13.5ZM6 13.5C5.7875 13.5 5.60938 13.4281 5.46562 13.2844C5.32187 13.1406 5.25 12.9625 5.25 12.75C5.25 12.5375 5.32187 12.3594 5.46562 12.2156C5.60938 12.0719 5.7875 12 6 12C6.2125 12 6.39062 12.0719 6.53438 12.2156C6.67812 12.3594 6.75 12.5375 6.75 12.75C6.75 12.9625 6.67812 13.1406 6.53438 13.2844C6.39062 13.4281 6.2125 13.5 6 13.5ZM12 13.5C11.7875 13.5 11.6094 13.4281 11.4656 13.2844C11.3219 13.1406 11.25 12.9625 11.25 12.75C11.25 12.5375 11.3219 12.3594 11.4656 12.2156C11.6094 12.0719 11.7875 12 12 12C12.2125 12 12.3906 12.0719 12.5344 12.2156C12.6781 12.3594 12.75 12.5375 12.75 12.75C12.75 12.9625 12.6781 13.1406 12.5344 13.2844C12.3906 13.4281 12.2125 13.5 12 13.5Z" fill="#6750A4"/>
</g>
</svg>
