<svg width="70" height="70" viewBox="0 0 70 70" fill="none" xmlns="http://www.w3.org/2000/svg">
<g filter="url(#filter0_f_114_8844)">
<circle cx="35" cy="35" r="11" fill="#EADDFF"/>
</g>
<circle cx="35" cy="35" r="8" fill="#EADDFF"/>
<circle cx="35" cy="35" r="34.5" stroke="#625B71" stroke-dasharray="2 2"/>
<mask id="mask0_114_8844" style="mask-type:alpha" maskUnits="userSpaceOnUse" x="24" y="24" width="22" height="22">
<rect x="24.2308" y="24.2307" width="21.5385" height="21.5385" fill="#D9D9D9"/>
</mask>
<g mask="url(#mask0_114_8844)">
<path d="M29.481 39.5768C30.2438 38.9935 31.0964 38.5335 32.0387 38.197C32.981 37.8604 33.9682 37.6922 35.0002 37.6922C36.0323 37.6922 37.0195 37.8604 37.9618 38.197C38.9041 38.5335 39.7566 38.9935 40.5195 39.5768C41.043 38.9635 41.4506 38.268 41.7422 37.4903C42.0339 36.7125 42.1797 35.8823 42.1797 34.9999C42.1797 33.0106 41.4805 31.3166 40.082 29.9181C38.6835 28.5196 36.9896 27.8204 35.0002 27.8204C33.0109 27.8204 31.317 28.5196 29.9185 29.9181C28.52 31.3166 27.8208 33.0106 27.8208 34.9999C27.8208 35.8823 27.9666 36.7125 28.2583 37.4903C28.5499 38.268 28.9575 38.9635 29.481 39.5768ZM35.0002 35.8973C34.1178 35.8973 33.3736 35.5944 32.7679 34.9887C32.1621 34.3829 31.8592 33.6388 31.8592 32.7563C31.8592 31.8738 32.1621 31.1297 32.7679 30.5239C33.3736 29.9181 34.1178 29.6153 35.0002 29.6153C35.8827 29.6153 36.6268 29.9181 37.2326 30.5239C37.8384 31.1297 38.1413 31.8738 38.1413 32.7563C38.1413 33.6388 37.8384 34.3829 37.2326 34.9887C36.6268 35.5944 35.8827 35.8973 35.0002 35.8973ZM35.0002 43.9742C33.7588 43.9742 32.5921 43.7387 31.5002 43.2675C30.4084 42.7963 29.4586 42.1569 28.6509 41.3492C27.8432 40.5415 27.2038 39.5918 26.7326 38.4999C26.2615 37.408 26.0259 36.2413 26.0259 34.9999C26.0259 33.7584 26.2615 32.5918 26.7326 31.4999C27.2038 30.408 27.8432 29.4582 28.6509 28.6505C29.4586 27.8428 30.4084 27.2034 31.5002 26.7322C32.5921 26.2611 33.7588 26.0255 35.0002 26.0255C36.2417 26.0255 37.4084 26.2611 38.5002 26.7322C39.5921 27.2034 40.5419 27.8428 41.3496 28.6505C42.1573 29.4582 42.7967 30.408 43.2679 31.4999C43.739 32.5918 43.9746 33.7584 43.9746 34.9999C43.9746 36.2413 43.739 37.408 43.2679 38.4999C42.7967 39.5918 42.1573 40.5415 41.3496 41.3492C40.5419 42.1569 39.5921 42.7963 38.5002 43.2675C37.4084 43.7387 36.2417 43.9742 35.0002 43.9742ZM35.0002 42.1794C35.793 42.1794 36.5408 42.0634 37.2438 41.8316C37.9468 41.5998 38.59 41.267 39.1733 40.8332C38.59 40.3994 37.9468 40.0666 37.2438 39.8348C36.5408 39.603 35.793 39.487 35.0002 39.487C34.2075 39.487 33.4596 39.603 32.7566 39.8348C32.0537 40.0666 31.4105 40.3994 30.8272 40.8332C31.4105 41.267 32.0537 41.5998 32.7566 41.8316C33.4596 42.0634 34.2075 42.1794 35.0002 42.1794ZM35.0002 34.1024C35.3891 34.1024 35.7107 33.9753 35.965 33.721C36.2193 33.4668 36.3464 33.1452 36.3464 32.7563C36.3464 32.3674 36.2193 32.0458 35.965 31.7915C35.7107 31.5373 35.3891 31.4101 35.0002 31.4101C34.6113 31.4101 34.2898 31.5373 34.0355 31.7915C33.7812 32.0458 33.6541 32.3674 33.6541 32.7563C33.6541 33.1452 33.7812 33.4668 34.0355 33.721C34.2898 33.9753 34.6113 34.1024 35.0002 34.1024Z" fill="#6750A4"/>
</g>
<defs>
<filter id="filter0_f_114_8844" x="23" y="23" width="24" height="24" filterUnits="userSpaceOnUse" color-interpolation-filters="sRGB">
<feFlood flood-opacity="0" result="BackgroundImageFix"/>
<feBlend mode="normal" in="SourceGraphic" in2="BackgroundImageFix" result="shape"/>
<feGaussianBlur stdDeviation="0.5" result="effect1_foregroundBlur_114_8844"/>
</filter>
</defs>
</svg>
