<svg width="24" height="24" viewBox="0 0 24 24" fill="none" xmlns="http://www.w3.org/2000/svg">
<mask id="mask0_0_699" style="mask-type:alpha" maskUnits="userSpaceOnUse" x="0" y="0" width="24" height="24">
<rect width="24" height="24" fill="#D9D9D9"/>
</mask>
<g mask="url(#mask0_0_699)">
<path d="M11 22.95V20.95C8.91672 20.7167 7.12922 19.8542 5.63755 18.3625C4.14588 16.8708 3.28338 15.0833 3.05005 13H1.05005V11H3.05005C3.28338 8.91667 4.14588 7.12917 5.63755 5.6375C7.12922 4.14583 8.91672 3.28333 11 3.05V1.05H13V3.05C15.0834 3.28333 16.8709 4.14583 18.3625 5.6375C19.8542 7.12917 20.7167 8.91667 20.95 11H22.95V13H20.95C20.7167 15.0833 19.8542 16.8708 18.3625 18.3625C16.8709 19.8542 15.0834 20.7167 13 20.95V22.95H11ZM12 19C13.9334 19 15.5834 18.3167 16.95 16.95C18.3167 15.5833 19 13.9333 19 12C19 10.0667 18.3167 8.41667 16.95 7.05C15.5834 5.68333 13.9334 5 12 5C10.0667 5 8.41672 5.68333 7.05005 7.05C5.68338 8.41667 5.00005 10.0667 5.00005 12C5.00005 13.9333 5.68338 15.5833 7.05005 16.95C8.41672 18.3167 10.0667 19 12 19ZM12 16C10.9 16 9.95838 15.6083 9.17505 14.825C8.39172 14.0417 8.00005 13.1 8.00005 12C8.00005 10.9 8.39172 9.95833 9.17505 9.175C9.95838 8.39167 10.9 8 12 8C13.1 8 14.0417 8.39167 14.825 9.175C15.6084 9.95833 16 10.9 16 12C16 13.1 15.6084 14.0417 14.825 14.825C14.0417 15.6083 13.1 16 12 16ZM12 14C12.55 14 13.0209 13.8042 13.4125 13.4125C13.8042 13.0208 14 12.55 14 12C14 11.45 13.8042 10.9792 13.4125 10.5875C13.0209 10.1958 12.55 10 12 10C11.45 10 10.9792 10.1958 10.5875 10.5875C10.1959 10.9792 10 11.45 10 12C10 12.55 10.1959 13.0208 10.5875 13.4125C10.9792 13.8042 11.45 14 12 14Z" fill="#6750A4"/>
</g>
</svg>
