<svg width="26" height="26" viewBox="0 0 26 26" fill="none" xmlns="http://www.w3.org/2000/svg">
<mask id="mask0_0_143" style="mask-type:alpha" maskUnits="userSpaceOnUse" x="-3" y="-3" width="32" height="32">
<rect x="-2.60004" y="-2.59998" width="31.2" height="31.2" fill="#D9D9D9"/>
</mask>
<g mask="url(#mask0_0_143)">
<path d="M9.75001 18.85L18.85 13L9.75001 7.15001V18.85ZM13 26C11.2017 26 9.51167 25.6588 7.93001 24.9763C6.34834 24.2938 4.9725 23.3675 3.8025 22.1975C2.6325 21.0275 1.70625 19.6517 1.02375 18.07C0.34125 16.4883 0 14.7983 0 13C0 11.2017 0.34125 9.51167 1.02375 7.93001C1.70625 6.34834 2.6325 4.9725 3.8025 3.8025C4.9725 2.6325 6.34834 1.70625 7.93001 1.02375C9.51167 0.34125 11.2017 0 13 0C14.7983 0 16.4883 0.34125 18.07 1.02375C19.6517 1.70625 21.0275 2.6325 22.1975 3.8025C23.3675 4.9725 24.2938 6.34834 24.9763 7.93001C25.6588 9.51167 26 11.2017 26 13C26 14.7983 25.6588 16.4883 24.9763 18.07C24.2938 19.6517 23.3675 21.0275 22.1975 22.1975C21.0275 23.3675 19.6517 24.2938 18.07 24.9763C16.4883 25.6588 14.7983 26 13 26ZM13 23.4C15.9033 23.4 18.3625 22.3925 20.3775 20.3775C22.3925 18.3625 23.4 15.9033 23.4 13C23.4 10.0967 22.3925 7.63751 20.3775 5.62251C18.3625 3.6075 15.9033 2.6 13 2.6C10.0967 2.6 7.63751 3.6075 5.62251 5.62251C3.6075 7.63751 2.6 10.0967 2.6 13C2.6 15.9033 3.6075 18.3625 5.62251 20.3775C7.63751 22.3925 10.0967 23.4 13 23.4Z" fill="#1C1B1F"/>
</g>
</svg>
